<?xml version="1.0" standalone="no"?>
<!DOCTYPE svg PUBLIC "-//W3C//DTD SVG 20010904//EN"
 "http://www.w3.org/TR/2001/REC-SVG-20010904/DTD/svg10.dtd">
<svg version="1.0" xmlns="http://www.w3.org/2000/svg"
 width="512.000000pt" height="512.000000pt" viewBox="0 0 512.000000 512.000000"
 preserveAspectRatio="xMidYMid meet">

<g transform="translate(0.000000,512.000000) scale(0.100000,-0.100000)"
fill="#000000" stroke="none">
<path d="M2020 2537 l0 -987 -237 0 -238 0 752 -752 751 -751 114 28 c177 44
360 110 523 190 509 248 918 657 1170 1170 73 147 165 398 185 506 6 30 13 63
16 74 5 17 2 16 -22 -7 l-29 -27 -170 166 c-94 92 -394 390 -668 663 -497 495
-497 495 -457 420 86 -161 128 -345 137 -595 18 -505 -129 -870 -400 -999
-117 -55 -192 -70 -357 -70 -166 0 -242 15 -357 71 -175 85 -291 252 -358 518
-66 257 -57 652 20 892 l25 78 -200 200 -200 200 0 -988z"/>
<path d="M2998 3116 c-100 -27 -151 -97 -185 -256 -22 -106 -26 -465 -5 -575
24 -130 76 -215 157 -258 32 -17 57 -22 125 -22 68 0 93 5 125 22 55 29 89 68
119 133 40 89 51 175 51 405 0 232 -15 334 -62 433 -51 109 -182 156 -325 118z"/>
<path d="M1280 3087 c0 -1 59 -58 130 -125 l130 -123 0 125 0 126 -130 0 c-71
0 -130 -1 -130 -3z"/>
</g>
</svg>
