<?xml version="1.0" standalone="no"?>
<!DOCTYPE svg PUBLIC "-//W3C//DTD SVG 20010904//EN"
 "http://www.w3.org/TR/2001/REC-SVG-20010904/DTD/svg10.dtd">
<svg version="1.0" xmlns="http://www.w3.org/2000/svg"
 width="512.000000pt" height="512.000000pt" viewBox="0 0 512.000000 512.000000"
 preserveAspectRatio="xMidYMid meet">

<g transform="translate(0.000000,512.000000) scale(0.100000,-0.100000)"
fill="#000000" stroke="none">
<path d="M2110 2532 l0 -982 -237 0 -237 0 733 -734 c403 -404 730 -739 727
-745 -8 -13 30 -7 134 21 151 41 309 101 455 173 513 252 920 660 1170 1170
73 150 165 401 185 505 6 30 13 64 16 75 5 16 1 15 -25 -9 l-31 -30 -53 49
c-28 27 -339 335 -690 685 -431 429 -628 619 -607 585 56 -90 75 -172 75 -325
0 -96 -5 -154 -18 -200 -25 -95 -108 -254 -177 -340 -82 -102 -275 -295 -388
-388 l-93 -77 355 -3 356 -2 0 -190 0 -190 -680 0 -680 0 0 173 0 172 38 30
c20 16 122 101 227 190 439 371 595 579 595 794 0 116 -36 188 -107 217 -70
30 -190 8 -235 -42 -29 -34 -58 -110 -64 -173 l-7 -61 -225 0 -225 0 6 78 c4
42 15 109 26 147 l20 70 -169 170 -170 170 0 -983z"/>
<path d="M1490 2965 c69 -69 126 -125 127 -125 2 0 3 56 3 125 l0 125 -127 0
-128 0 125 -125z"/>
</g>
</svg>
