<?xml version="1.0" standalone="no"?>
<!DOCTYPE svg PUBLIC "-//W3C//DTD SVG 20010904//EN"
 "http://www.w3.org/TR/2001/REC-SVG-20010904/DTD/svg10.dtd">
<svg version="1.0" xmlns="http://www.w3.org/2000/svg"
 width="512.000000pt" height="512.000000pt" viewBox="0 0 512.000000 512.000000"
 preserveAspectRatio="xMidYMid meet">

<g transform="translate(0.000000,512.000000) scale(0.100000,-0.100000)"
fill="#000000" stroke="none">
<path d="M3440 2557 l0 -987 -240 0 -240 0 0 770 0 770 -135 0 -135 0 0 83 0
82 -130 130 -130 130 0 -983 0 -982 -237 0 -237 0 659 -660 659 -661 -95 -95
c-110 -110 -116 -108 111 -42 246 71 452 166 665 306 392 257 694 598 900
1017 73 148 165 399 185 506 6 30 13 63 16 74 5 17 1 16 -22 -8 l-29 -27 -782
782 -783 783 0 -988z"/>
<path d="M1795 2999 c61 -61 118 -115 128 -120 16 -9 17 -1 17 111 l0 120
-127 0 -128 0 110 -111z"/>
</g>
</svg>
